<svg id="visual" viewBox="0 0 900 600" width="900" height="600" xmlns="http://www.w3.org/2000/svg" xmlns:xlink="http://www.w3.org/1999/xlink" version="1.1"><rect x="0" y="0" width="900" height="600" fill="#FFF"></rect><path d="M644 600L637 590C630 580 616 560 611.2 540C606.3 520 610.7 500 617.3 480C624 460 633 440 634.3 420C635.7 400 629.3 380 635 360C640.7 340 658.3 320 663 300C667.7 280 659.3 260 646 240C632.7 220 614.3 200 619.8 180C625.3 160 654.7 140 667.8 120C681 100 678 80 668.5 60C659 40 643 20 635 10L627 0L900 0L900 10C900 20 900 40 900 60C900 80 900 100 900 120C900 140 900 160 900 180C900 200 900 220 900 240C900 260 900 280 900 300C900 320 900 340 900 360C900 380 900 400 900 420C900 440 900 460 900 480C900 500 900 520 900 540C900 560 900 580 900 590L900 600Z" fill="#fa70af"></path><path d="M669 600L672.5 590C676 580 683 560 691.5 540C700 520 710 500 702.7 480C695.3 460 670.7 440 668.2 420C665.7 400 685.3 380 697.5 360C709.7 340 714.3 320 710.8 300C707.3 280 695.7 260 690.5 240C685.3 220 686.7 200 681.5 180C676.3 160 664.7 140 657 120C649.3 100 645.7 80 646.8 60C648 40 654 20 657 10L660 0L900 0L900 10C900 20 900 40 900 60C900 80 900 100 900 120C900 140 900 160 900 180C900 200 900 220 900 240C900 260 900 280 900 300C900 320 900 340 900 360C900 380 900 400 900 420C900 440 900 460 900 480C900 500 900 520 900 540C900 560 900 580 900 590L900 600Z" fill="#fc64a2"></path><path d="M706 600L704.8 590C703.7 580 701.3 560 706.2 540C711 520 723 500 726.5 480C730 460 725 440 725.5 420C726 400 732 380 735.3 360C738.7 340 739.3 320 740.7 300C742 280 744 260 735.7 240C727.3 220 708.7 200 705 180C701.3 160 712.7 140 710.7 120C708.7 100 693.3 80 691.5 60C689.7 40 701.3 20 707.2 10L713 0L900 0L900 10C900 20 900 40 900 60C900 80 900 100 900 120C900 140 900 160 900 180C900 200 900 220 900 240C900 260 900 280 900 300C900 320 900 340 900 360C900 380 900 400 900 420C900 440 900 460 900 480C900 500 900 520 900 540C900 560 900 580 900 590L900 600Z" fill="#fe5695"></path><path d="M755 600L754.7 590C754.3 580 753.7 560 756.5 540C759.3 520 765.7 500 768.5 480C771.3 460 770.7 440 762 420C753.3 400 736.7 380 729.3 360C722 340 724 320 731 300C738 280 750 260 751.2 240C752.3 220 742.7 200 743.7 180C744.7 160 756.3 140 761.5 120C766.7 100 765.3 80 765 60C764.7 40 765.3 20 765.7 10L766 0L900 0L900 10C900 20 900 40 900 60C900 80 900 100 900 120C900 140 900 160 900 180C900 200 900 220 900 240C900 260 900 280 900 300C900 320 900 340 900 360C900 380 900 400 900 420C900 440 900 460 900 480C900 500 900 520 900 540C900 560 900 580 900 590L900 600Z" fill="#ff4886"></path><path d="M766 600L772.2 590C778.3 580 790.7 560 793.2 540C795.7 520 788.3 500 783.5 480C778.7 460 776.3 440 771.8 420C767.3 400 760.7 380 760 360C759.3 340 764.7 320 772.7 300C780.7 280 791.3 260 789.5 240C787.7 220 773.3 200 773.3 180C773.3 160 787.7 140 789.8 120C792 100 782 80 783 60C784 40 796 20 802 10L808 0L900 0L900 10C900 20 900 40 900 60C900 80 900 100 900 120C900 140 900 160 900 180C900 200 900 220 900 240C900 260 900 280 900 300C900 320 900 340 900 360C900 380 900 400 900 420C900 440 900 460 900 480C900 500 900 520 900 540C900 560 900 580 900 590L900 600Z" fill="#ff3976"></path><path d="M841 600L837.8 590C834.7 580 828.3 560 828.8 540C829.3 520 836.7 500 834.2 480C831.7 460 819.3 440 818.2 420C817 400 827 380 830.7 360C834.3 340 831.7 320 831.2 300C830.7 280 832.3 260 828.2 240C824 220 814 200 815 180C816 160 828 140 827.5 120C827 100 814 80 807.5 60C801 40 801 20 801 10L801 0L900 0L900 10C900 20 900 40 900 60C900 80 900 100 900 120C900 140 900 160 900 180C900 200 900 220 900 240C900 260 900 280 900 300C900 320 900 340 900 360C900 380 900 400 900 420C900 440 900 460 900 480C900 500 900 520 900 540C900 560 900 580 900 590L900 600Z" fill="#ff2666"></path><path d="M837 600L843 590C849 580 861 560 865.5 540C870 520 867 500 864.2 480C861.3 460 858.7 440 853.7 420C848.7 400 841.3 380 841.2 360C841 340 848 320 855.3 300C862.7 280 870.3 260 872 240C873.7 220 869.3 200 865.2 180C861 160 857 140 854.7 120C852.3 100 851.7 80 851.2 60C850.7 40 850.3 20 850.2 10L850 0L900 0L900 10C900 20 900 40 900 60C900 80 900 100 900 120C900 140 900 160 900 180C900 200 900 220 900 240C900 260 900 280 900 300C900 320 900 340 900 360C900 380 900 400 900 420C900 440 900 460 900 480C900 500 900 520 900 540C900 560 900 580 900 590L900 600Z" fill="#ff0a54"></path></svg>