<?xml version="1.0" encoding="UTF-8" standalone="no"?>
<svg
   id="visual"
   viewBox="0 0 900 600"
   width="900"
   height="600"
   version="1.1"
   sodipodi:docname="background-light-3.svg"
   inkscape:version="1.1.1 (3bf5ae0d25, 2021-09-20)"
   xmlns:inkscape="http://www.inkscape.org/namespaces/inkscape"
   xmlns:sodipodi="http://sodipodi.sourceforge.net/DTD/sodipodi-0.dtd"
   xmlns="http://www.w3.org/2000/svg"
   xmlns:svg="http://www.w3.org/2000/svg">
  <defs
     id="defs874" />
  <sodipodi:namedview
     id="namedview872"
     pagecolor="#505050"
     bordercolor="#ffffff"
     borderopacity="1"
     inkscape:pageshadow="0"
     inkscape:pageopacity="0"
     inkscape:pagecheckerboard="1"
     showgrid="false"
     inkscape:zoom="15.738625"
     inkscape:rotation="-1"
     inkscape:cx="773.23897"
     inkscape:cy="15.053853"
     inkscape:window-width="2560"
     inkscape:window-height="1361"
     inkscape:window-x="-9"
     inkscape:window-y="-9"
     inkscape:window-maximized="1"
     inkscape:current-layer="visual" />
  <path
     d="m 613,600 0.0137,-10.23536 C 612.29575,574.53048 625.7,560 626.2,540 c 0.5,-20 -4.9,-40 -1.2,-60 3.7,-20 16.3,-40 22.8,-60 6.5,-20 6.9,-40 10.7,-60 3.8,-20 11.2,-40 16.3,-60 5.2,-20 8.2,-40 8.5,-60 0.4,-20 -2,-40 -4,-60 -2,-20 -3.6,-40 -15,-60 C 653,100 632,80 622.3,60 612.7,40 613.19253,20.440747 613.13855,12.2557 L 612.98918,0 H 900 v 10 50 60 60 60 60 60 60 60 60 50 10 z"
     fill="#fa70af"
     id="path857"
     sodipodi:nodetypes="ccssssccscccccccccccccccccc" />
  <path
     d="M718 600L712.7 590C707.3 580 696.7 560 691.7 540C686.7 520 687.3 500 683.5 480C679.7 460 671.3 440 664.2 420C657 400 651 380 651.2 360C651.3 340 657.7 320 658.7 300C659.7 280 655.3 260 652.3 240C649.3 220 647.7 200 645 180C642.3 160 638.7 140 636.8 120C635 100 635 80 645.3 60C655.7 40 676.3 20 686.7 10L697 0L900 0L900 10C900 20 900 40 900 60C900 80 900 100 900 120C900 140 900 160 900 180C900 200 900 220 900 240C900 260 900 280 900 300C900 320 900 340 900 360C900 380 900 400 900 420C900 440 900 460 900 480C900 500 900 520 900 540C900 560 900 580 900 590L900 600Z"
     fill="#fc64a2"
     id="path859" />
  <path
     d="m 680,600 1,-10 c 1,-10 3,-30 11.3,-50 8.4,-20 23,-40 25.5,-60 2.5,-20 -7.1,-40 -8.8,-60 -1.7,-20 4.7,-40 12.5,-60 7.8,-20 17.2,-40 18.8,-60 1.7,-20 -4.3,-40 -14.5,-60 -10.1,-20 -24.5,-40 -28.8,-60 -4.3,-20 1.3,-40 12,-60 10.7,-20 26.3,-40 24.5,-60 C 731.7,40 683.16977,46.452505 679.55872,12.561775 L 679.87828,0.04056935 900,0 v 10 50 60 60 60 60 60 60 60 60 50 10 z"
     fill="#fe5695"
     id="path861"
     sodipodi:nodetypes="cscsssccssscccccccccccccccc" />
  <path
     d="m 759,600 -2,-10 c -2,-10 -6,-30 -4,-50 2,-20 10,-40 8.8,-60 -1.1,-20 -11.5,-40 -16.5,-60 -5,-20 -4.6,-40 -9.1,-60 -4.5,-20 -13.9,-40 -8.5,-60 5.3,-20 25.3,-40 33.8,-60 8.5,-20 5.5,-40 -0.2,-60 -5.6,-20 -14,-40 -10.8,-60 3.2,-20 17.8,-40 14.8,-60 -3,-20 -5.98761,-33.274264 -9.41867,-45.694526 L 759.44791,-0.09146075 900,0 v 10 50 60 60 60 60 60 60 60 60 50 10 z"
     fill="#ff4886"
     id="path863"
     sodipodi:nodetypes="csscsscscsscccccccccccccccc" />
  <path
     d="m 763,600 0.2,-10 c 0.1,-10 0.5,-30 7.1,-50 6.7,-20 19.7,-40 27,-60 7.4,-20 9,-40 1.4,-60 -7.7,-20 -24.7,-40 -32,-60 -7.4,-20 -5,-40 4.1,-60 9.2,-20 25.2,-40 28.2,-60 3,-20 -7,-40 -12.3,-60 -5.4,-20 -6,-40 -3.5,-60 2.5,-20 8.1,-40 4.3,-60 C 783.7,40 774.67902,20.330627 768.07902,10.330626 L 764.49967,-0.05973579 900,0 v 10 50 60 60 60 60 60 60 60 60 50 10 z"
     fill="#ff3976"
     id="path865"
     sodipodi:nodetypes="cccccccscsscccccccccccccccc" />
  <path
     d="m 813,600 5.5,-10 c 5.5,-10 16.5,-30 20.5,-50 4,-20 1,-40 -6.7,-60 -7.6,-20 -20,-40 -19.1,-60 0.8,-20 14.8,-40 14.6,-60 -0.1,-20 -14.5,-40 -22.6,-60 -8.2,-20 -10.2,-40 -10.7,-60 -0.5,-20 0.5,-40 6.3,-60 5.9,-20 16.5,-40 20.5,-60 4,-20 1.4,-40 1,-60 -0.3,-20 2.49237,-36.875462 -1.56273,-46.070906 L 814.56269,-0.07254368 900,0 v 10 50 60 60 60 60 60 60 60 60 50 10 z"
     fill="#ff2666"
     id="path867"
     sodipodi:nodetypes="cssccccscscsccccccccccccccc" />
  <path
     d="m 853,600 1.3,-10 c 1.4,-10 4,-30 2.9,-50 -1.2,-20 -6.2,-40 -9.2,-60 -3,-20 -4,-40 -2.2,-60 1.9,-20 6.5,-40 11.5,-60 5,-20 10.4,-40 6.5,-60 -3.8,-20 -16.8,-40 -16.6,-60 0.1,-20 13.5,-40 17.8,-60 4.3,-20 -0.3,-40 -0.3,-60 0,-20 4.6,-40 4,-60 C 868,40 858.69602,28.648366 854.1359,19.256598 L 851.8027,0.18092634 900,0 v 10 50 60 60 60 60 60 60 60 60 50 10 z"
     fill="#ff0a54"
     id="path869"
     sodipodi:nodetypes="cccscsccsscsccccccccccccccc" />
</svg>
