<svg id="visual" viewBox="0 0 900 600" width="900" height="600" xmlns="http://www.w3.org/2000/svg" xmlns:xlink="http://www.w3.org/1999/xlink" version="1.1"><path d="M813 600L814.3 595.7C815.7 591.3 818.3 582.7 819.3 574C820.3 565.3 819.7 556.7 818.8 548C818 539.3 817 530.7 816.8 522C816.7 513.3 817.3 504.7 816.8 496C816.3 487.3 814.7 478.7 815.8 469.8C817 461 821 452 822.3 443.2C823.7 434.3 822.3 425.7 820.5 417C818.7 408.3 816.3 399.7 816.2 391C816 382.3 818 373.7 819.8 365C821.7 356.3 823.3 347.7 823.3 339C823.3 330.3 821.7 321.7 819.7 313C817.7 304.3 815.3 295.7 815.5 287C815.7 278.3 818.3 269.7 818 261C817.7 252.3 814.3 243.7 813 235C811.7 226.3 812.3 217.7 814.3 209C816.3 200.3 819.7 191.7 819.7 183C819.7 174.3 816.3 165.7 814.7 156.8C813 148 813 139 814 130.2C815 121.3 817 112.7 818.5 104C820 95.3 821 86.7 821.8 78C822.7 69.3 823.3 60.7 824 52C824.7 43.3 825.3 34.7 823.2 26C821 17.3 816 8.7 813.5 4.3L811 0L900 0L900 4.3C900 8.7 900 17.3 900 26C900 34.7 900 43.3 900 52C900 60.7 900 69.3 900 78C900 86.7 900 95.3 900 104C900 112.7 900 121.3 900 130.2C900 139 900 148 900 156.8C900 165.7 900 174.3 900 183C900 191.7 900 200.3 900 209C900 217.7 900 226.3 900 235C900 243.7 900 252.3 900 261C900 269.7 900 278.3 900 287C900 295.7 900 304.3 900 313C900 321.7 900 330.3 900 339C900 347.7 900 356.3 900 365C900 373.7 900 382.3 900 391C900 399.7 900 408.3 900 417C900 425.7 900 434.3 900 443.2C900 452 900 461 900 469.8C900 478.7 900 487.3 900 496C900 504.7 900 513.3 900 522C900 530.7 900 539.3 900 548C900 556.7 900 565.3 900 574C900 582.7 900 591.3 900 595.7L900 600Z" fill="#ff0a54"></path><path d="M821 600L820.8 595.7C820.7 591.3 820.3 582.7 821.2 574C822 565.3 824 556.7 825.5 548C827 539.3 828 530.7 829.2 522C830.3 513.3 831.7 504.7 830.2 496C828.7 487.3 824.3 478.7 822.3 469.8C820.3 461 820.7 452 822 443.2C823.3 434.3 825.7 425.7 827.7 417C829.7 408.3 831.3 399.7 830.3 391C829.3 382.3 825.7 373.7 825.2 365C824.7 356.3 827.3 347.7 828.3 339C829.3 330.3 828.7 321.7 827.3 313C826 304.3 824 295.7 823.5 287C823 278.3 824 269.7 824 261C824 252.3 823 243.7 823 235C823 226.3 824 217.7 824.7 209C825.3 200.3 825.7 191.7 826.3 183C827 174.3 828 165.7 826.8 156.8C825.7 148 822.3 139 821.5 130.2C820.7 121.3 822.3 112.7 823 104C823.7 95.3 823.3 86.7 824.7 78C826 69.3 829 60.7 828.7 52C828.3 43.3 824.7 34.7 824.2 26C823.7 17.3 826.3 8.7 827.7 4.3L829 0L900 0L900 4.3C900 8.7 900 17.3 900 26C900 34.7 900 43.3 900 52C900 60.7 900 69.3 900 78C900 86.7 900 95.3 900 104C900 112.7 900 121.3 900 130.2C900 139 900 148 900 156.8C900 165.7 900 174.3 900 183C900 191.7 900 200.3 900 209C900 217.7 900 226.3 900 235C900 243.7 900 252.3 900 261C900 269.7 900 278.3 900 287C900 295.7 900 304.3 900 313C900 321.7 900 330.3 900 339C900 347.7 900 356.3 900 365C900 373.7 900 382.3 900 391C900 399.7 900 408.3 900 417C900 425.7 900 434.3 900 443.2C900 452 900 461 900 469.8C900 478.7 900 487.3 900 496C900 504.7 900 513.3 900 522C900 530.7 900 539.3 900 548C900 556.7 900 565.3 900 574C900 582.7 900 591.3 900 595.7L900 600Z" fill="#ff1d5f"></path><path d="M835 600L835.7 595.7C836.3 591.3 837.7 582.7 837 574C836.3 565.3 833.7 556.7 832.3 548C831 539.3 831 530.7 832.5 522C834 513.3 837 504.7 837.2 496C837.3 487.3 834.7 478.7 833 469.8C831.3 461 830.7 452 831.8 443.2C833 434.3 836 425.7 837.2 417C838.3 408.3 837.7 399.7 836.3 391C835 382.3 833 373.7 832.2 365C831.3 356.3 831.7 347.7 831.8 339C832 330.3 832 321.7 832.5 313C833 304.3 834 295.7 834.7 287C835.3 278.3 835.7 269.7 834.7 261C833.7 252.3 831.3 243.7 829.8 235C828.3 226.3 827.7 217.7 828.5 209C829.3 200.3 831.7 191.7 832.2 183C832.7 174.3 831.3 165.7 831.5 156.8C831.7 148 833.3 139 834.3 130.2C835.3 121.3 835.7 112.7 836.2 104C836.7 95.3 837.3 86.7 837.3 78C837.3 69.3 836.7 60.7 835 52C833.3 43.3 830.7 34.7 829.7 26C828.7 17.3 829.3 8.7 829.7 4.3L830 0L900 0L900 4.3C900 8.7 900 17.3 900 26C900 34.7 900 43.3 900 52C900 60.7 900 69.3 900 78C900 86.7 900 95.3 900 104C900 112.7 900 121.3 900 130.2C900 139 900 148 900 156.8C900 165.7 900 174.3 900 183C900 191.7 900 200.3 900 209C900 217.7 900 226.3 900 235C900 243.7 900 252.3 900 261C900 269.7 900 278.3 900 287C900 295.7 900 304.3 900 313C900 321.7 900 330.3 900 339C900 347.7 900 356.3 900 365C900 373.7 900 382.3 900 391C900 399.7 900 408.3 900 417C900 425.7 900 434.3 900 443.2C900 452 900 461 900 469.8C900 478.7 900 487.3 900 496C900 504.7 900 513.3 900 522C900 530.7 900 539.3 900 548C900 556.7 900 565.3 900 574C900 582.7 900 591.3 900 595.7L900 600Z" fill="#ff2a69"></path><path d="M836 600L835.7 595.7C835.3 591.3 834.7 582.7 836.7 574C838.7 565.3 843.3 556.7 845.5 548C847.7 539.3 847.3 530.7 847.2 522C847 513.3 847 504.7 845.3 496C843.7 487.3 840.3 478.7 838.5 469.8C836.7 461 836.3 452 836.5 443.2C836.7 434.3 837.3 425.7 837.5 417C837.7 408.3 837.3 399.7 838.3 391C839.3 382.3 841.7 373.7 843 365C844.3 356.3 844.7 347.7 844.5 339C844.3 330.3 843.7 321.7 842.8 313C842 304.3 841 295.7 841.5 287C842 278.3 844 269.7 844.7 261C845.3 252.3 844.7 243.7 842.8 235C841 226.3 838 217.7 837.8 209C837.7 200.3 840.3 191.7 840.7 183C841 174.3 839 165.7 839.5 156.8C840 148 843 139 842.5 130.2C842 121.3 838 112.7 838.3 104C838.7 95.3 843.3 86.7 845 78C846.7 69.3 845.3 60.7 843.5 52C841.7 43.3 839.3 34.7 840 26C840.7 17.3 844.3 8.7 846.2 4.3L848 0L900 0L900 4.3C900 8.7 900 17.3 900 26C900 34.7 900 43.3 900 52C900 60.7 900 69.3 900 78C900 86.7 900 95.3 900 104C900 112.7 900 121.3 900 130.2C900 139 900 148 900 156.8C900 165.7 900 174.3 900 183C900 191.7 900 200.3 900 209C900 217.7 900 226.3 900 235C900 243.7 900 252.3 900 261C900 269.7 900 278.3 900 287C900 295.7 900 304.3 900 313C900 321.7 900 330.3 900 339C900 347.7 900 356.3 900 365C900 373.7 900 382.3 900 391C900 399.7 900 408.3 900 417C900 425.7 900 434.3 900 443.2C900 452 900 461 900 469.8C900 478.7 900 487.3 900 496C900 504.7 900 513.3 900 522C900 530.7 900 539.3 900 548C900 556.7 900 565.3 900 574C900 582.7 900 591.3 900 595.7L900 600Z" fill="#ff3573"></path><path d="M846 600L846.2 595.7C846.3 591.3 846.7 582.7 847.5 574C848.3 565.3 849.7 556.7 851 548C852.3 539.3 853.7 530.7 854.2 522C854.7 513.3 854.3 504.7 853.3 496C852.3 487.3 850.7 478.7 848.5 469.8C846.3 461 843.7 452 842.8 443.2C842 434.3 843 425.7 845.3 417C847.7 408.3 851.3 399.7 852.2 391C853 382.3 851 373.7 848.8 365C846.7 356.3 844.3 347.7 844.2 339C844 330.3 846 321.7 846.8 313C847.7 304.3 847.3 295.7 848.3 287C849.3 278.3 851.7 269.7 851.8 261C852 252.3 850 243.7 848.2 235C846.3 226.3 844.7 217.7 845.7 209C846.7 200.3 850.3 191.7 852.2 183C854 174.3 854 165.7 852 156.8C850 148 846 139 843.8 130.2C841.7 121.3 841.3 112.7 843 104C844.7 95.3 848.3 86.7 849 78C849.7 69.3 847.3 60.7 846 52C844.7 43.3 844.3 34.7 845.8 26C847.3 17.3 850.7 8.7 852.3 4.3L854 0L900 0L900 4.3C900 8.7 900 17.3 900 26C900 34.7 900 43.3 900 52C900 60.7 900 69.3 900 78C900 86.7 900 95.3 900 104C900 112.7 900 121.3 900 130.2C900 139 900 148 900 156.8C900 165.7 900 174.3 900 183C900 191.7 900 200.3 900 209C900 217.7 900 226.3 900 235C900 243.7 900 252.3 900 261C900 269.7 900 278.3 900 287C900 295.7 900 304.3 900 313C900 321.7 900 330.3 900 339C900 347.7 900 356.3 900 365C900 373.7 900 382.3 900 391C900 399.7 900 408.3 900 417C900 425.7 900 434.3 900 443.2C900 452 900 461 900 469.8C900 478.7 900 487.3 900 496C900 504.7 900 513.3 900 522C900 530.7 900 539.3 900 548C900 556.7 900 565.3 900 574C900 582.7 900 591.3 900 595.7L900 600Z" fill="#ff3f7d"></path><path d="M854 600L853.7 595.7C853.3 591.3 852.7 582.7 853.2 574C853.7 565.3 855.3 556.7 856.7 548C858 539.3 859 530.7 858.8 522C858.7 513.3 857.3 504.7 857.5 496C857.7 487.3 859.3 478.7 858.3 469.8C857.3 461 853.7 452 852.5 443.2C851.3 434.3 852.7 425.7 852.8 417C853 408.3 852 399.7 851.5 391C851 382.3 851 373.7 852.7 365C854.3 356.3 857.7 347.7 857.7 339C857.7 330.3 854.3 321.7 854.5 313C854.7 304.3 858.3 295.7 858.2 287C858 278.3 854 269.7 853 261C852 252.3 854 243.7 854.8 235C855.7 226.3 855.3 217.7 855.3 209C855.3 200.3 855.7 191.7 856.3 183C857 174.3 858 165.7 857.3 156.8C856.7 148 854.3 139 854.5 130.2C854.7 121.3 857.3 112.7 857.3 104C857.3 95.3 854.7 86.7 854.7 78C854.7 69.3 857.3 60.7 858.2 52C859 43.3 858 34.7 856.2 26C854.3 17.3 851.7 8.7 850.3 4.3L849 0L900 0L900 4.3C900 8.7 900 17.3 900 26C900 34.7 900 43.3 900 52C900 60.7 900 69.3 900 78C900 86.7 900 95.3 900 104C900 112.7 900 121.3 900 130.2C900 139 900 148 900 156.8C900 165.7 900 174.3 900 183C900 191.7 900 200.3 900 209C900 217.7 900 226.3 900 235C900 243.7 900 252.3 900 261C900 269.7 900 278.3 900 287C900 295.7 900 304.3 900 313C900 321.7 900 330.3 900 339C900 347.7 900 356.3 900 365C900 373.7 900 382.3 900 391C900 399.7 900 408.3 900 417C900 425.7 900 434.3 900 443.2C900 452 900 461 900 469.8C900 478.7 900 487.3 900 496C900 504.7 900 513.3 900 522C900 530.7 900 539.3 900 548C900 556.7 900 565.3 900 574C900 582.7 900 591.3 900 595.7L900 600Z" fill="#ff4886"></path><path d="M870 600L868 595.7C866 591.3 862 582.7 861 574C860 565.3 862 556.7 862.8 548C863.7 539.3 863.3 530.7 863.7 522C864 513.3 865 504.7 865.8 496C866.7 487.3 867.3 478.7 865.8 469.8C864.3 461 860.7 452 860.7 443.2C860.7 434.3 864.3 425.7 865 417C865.7 408.3 863.3 399.7 861.7 391C860 382.3 859 373.7 860.3 365C861.7 356.3 865.3 347.7 865.8 339C866.3 330.3 863.7 321.7 861.7 313C859.7 304.3 858.3 295.7 858.7 287C859 278.3 861 269.7 861.8 261C862.7 252.3 862.3 243.7 862.3 235C862.3 226.3 862.7 217.7 862 209C861.3 200.3 859.7 191.7 860.3 183C861 174.3 864 165.7 865.7 156.8C867.3 148 867.7 139 866.3 130.2C865 121.3 862 112.7 860.7 104C859.3 95.3 859.7 86.7 860.3 78C861 69.3 862 60.7 861.5 52C861 43.3 859 34.7 858.7 26C858.3 17.3 859.7 8.7 860.3 4.3L861 0L900 0L900 4.3C900 8.7 900 17.3 900 26C900 34.7 900 43.3 900 52C900 60.7 900 69.3 900 78C900 86.7 900 95.3 900 104C900 112.7 900 121.3 900 130.2C900 139 900 148 900 156.8C900 165.7 900 174.3 900 183C900 191.7 900 200.3 900 209C900 217.7 900 226.3 900 235C900 243.7 900 252.3 900 261C900 269.7 900 278.3 900 287C900 295.7 900 304.3 900 313C900 321.7 900 330.3 900 339C900 347.7 900 356.3 900 365C900 373.7 900 382.3 900 391C900 399.7 900 408.3 900 417C900 425.7 900 434.3 900 443.2C900 452 900 461 900 469.8C900 478.7 900 487.3 900 496C900 504.7 900 513.3 900 522C900 530.7 900 539.3 900 548C900 556.7 900 565.3 900 574C900 582.7 900 591.3 900 595.7L900 600Z" fill="#ff518f"></path><path d="M866 600L866.2 595.7C866.3 591.3 866.7 582.7 867.3 574C868 565.3 869 556.7 869.8 548C870.7 539.3 871.3 530.7 870.5 522C869.7 513.3 867.3 504.7 868 496C868.7 487.3 872.3 478.7 874.2 469.8C876 461 876 452 875.5 443.2C875 434.3 874 425.7 873 417C872 408.3 871 399.7 871.8 391C872.7 382.3 875.3 373.7 874.7 365C874 356.3 870 347.7 868.8 339C867.7 330.3 869.3 321.7 870.8 313C872.3 304.3 873.7 295.7 872.8 287C872 278.3 869 269.7 868.5 261C868 252.3 870 243.7 871.2 235C872.3 226.3 872.7 217.7 871.8 209C871 200.3 869 191.7 868.8 183C868.7 174.3 870.3 165.7 872 156.8C873.7 148 875.3 139 875.5 130.2C875.7 121.3 874.3 112.7 872.8 104C871.3 95.3 869.7 86.7 869.5 78C869.3 69.3 870.7 60.7 871.3 52C872 43.3 872 34.7 873 26C874 17.3 876 8.7 877 4.3L878 0L900 0L900 4.3C900 8.7 900 17.3 900 26C900 34.7 900 43.3 900 52C900 60.7 900 69.3 900 78C900 86.7 900 95.3 900 104C900 112.7 900 121.3 900 130.2C900 139 900 148 900 156.8C900 165.7 900 174.3 900 183C900 191.7 900 200.3 900 209C900 217.7 900 226.3 900 235C900 243.7 900 252.3 900 261C900 269.7 900 278.3 900 287C900 295.7 900 304.3 900 313C900 321.7 900 330.3 900 339C900 347.7 900 356.3 900 365C900 373.7 900 382.3 900 391C900 399.7 900 408.3 900 417C900 425.7 900 434.3 900 443.2C900 452 900 461 900 469.8C900 478.7 900 487.3 900 496C900 504.7 900 513.3 900 522C900 530.7 900 539.3 900 548C900 556.7 900 565.3 900 574C900 582.7 900 591.3 900 595.7L900 600Z" fill="#fe5997"></path><path d="M882 600L881.3 595.7C880.7 591.3 879.3 582.7 879.7 574C880 565.3 882 556.7 881.7 548C881.3 539.3 878.7 530.7 878.3 522C878 513.3 880 504.7 881 496C882 487.3 882 478.7 882.5 469.8C883 461 884 452 882.7 443.2C881.3 434.3 877.7 425.7 876.5 417C875.3 408.3 876.7 399.7 877.2 391C877.7 382.3 877.3 373.7 877.7 365C878 356.3 879 347.7 880.2 339C881.3 330.3 882.7 321.7 882 313C881.3 304.3 878.7 295.7 876.8 287C875 278.3 874 269.7 874 261C874 252.3 875 243.7 876.3 235C877.7 226.3 879.3 217.7 878.5 209C877.7 200.3 874.3 191.7 875 183C875.7 174.3 880.3 165.7 880.5 156.8C880.7 148 876.3 139 876 130.2C875.7 121.3 879.3 112.7 879.3 104C879.3 95.3 875.7 86.7 874.8 78C874 69.3 876 60.7 877.8 52C879.7 43.3 881.3 34.7 881.3 26C881.3 17.3 879.7 8.7 878.8 4.3L878 0L900 0L900 4.3C900 8.7 900 17.3 900 26C900 34.7 900 43.3 900 52C900 60.7 900 69.3 900 78C900 86.7 900 95.3 900 104C900 112.7 900 121.3 900 130.2C900 139 900 148 900 156.8C900 165.7 900 174.3 900 183C900 191.7 900 200.3 900 209C900 217.7 900 226.3 900 235C900 243.7 900 252.3 900 261C900 269.7 900 278.3 900 287C900 295.7 900 304.3 900 313C900 321.7 900 330.3 900 339C900 347.7 900 356.3 900 365C900 373.7 900 382.3 900 391C900 399.7 900 408.3 900 417C900 425.7 900 434.3 900 443.2C900 452 900 461 900 469.8C900 478.7 900 487.3 900 496C900 504.7 900 513.3 900 522C900 530.7 900 539.3 900 548C900 556.7 900 565.3 900 574C900 582.7 900 591.3 900 595.7L900 600Z" fill="#fd61a0"></path><path d="M881 600L881.7 595.7C882.3 591.3 883.7 582.7 884.8 574C886 565.3 887 556.7 888 548C889 539.3 890 530.7 889.3 522C888.7 513.3 886.3 504.7 886.3 496C886.3 487.3 888.7 478.7 888.8 469.8C889 461 887 452 885.5 443.2C884 434.3 883 425.7 882.7 417C882.3 408.3 882.7 399.7 882.5 391C882.3 382.3 881.7 373.7 881.7 365C881.7 356.3 882.3 347.7 883.2 339C884 330.3 885 321.7 886 313C887 304.3 888 295.7 888.3 287C888.7 278.3 888.3 269.7 888.8 261C889.3 252.3 890.7 243.7 889.5 235C888.3 226.3 884.7 217.7 882.7 209C880.7 200.3 880.3 191.7 882 183C883.7 174.3 887.3 165.7 888.2 156.8C889 148 887 139 886.2 130.2C885.3 121.3 885.7 112.7 885 104C884.3 95.3 882.7 86.7 881.8 78C881 69.3 881 60.7 881.5 52C882 43.3 883 34.7 884.8 26C886.7 17.3 889.3 8.7 890.7 4.3L892 0L900 0L900 4.3C900 8.7 900 17.3 900 26C900 34.7 900 43.3 900 52C900 60.7 900 69.3 900 78C900 86.7 900 95.3 900 104C900 112.7 900 121.3 900 130.2C900 139 900 148 900 156.8C900 165.7 900 174.3 900 183C900 191.7 900 200.3 900 209C900 217.7 900 226.3 900 235C900 243.7 900 252.3 900 261C900 269.7 900 278.3 900 287C900 295.7 900 304.3 900 313C900 321.7 900 330.3 900 339C900 347.7 900 356.3 900 365C900 373.7 900 382.3 900 391C900 399.7 900 408.3 900 417C900 425.7 900 434.3 900 443.2C900 452 900 461 900 469.8C900 478.7 900 487.3 900 496C900 504.7 900 513.3 900 522C900 530.7 900 539.3 900 548C900 556.7 900 565.3 900 574C900 582.7 900 591.3 900 595.7L900 600Z" fill="#fc69a7"></path><path d="M889 600L889.2 595.7C889.3 591.3 889.7 582.7 889.7 574C889.7 565.3 889.3 556.7 890.2 548C891 539.3 893 530.7 893.7 522C894.3 513.3 893.7 504.7 892.7 496C891.7 487.3 890.3 478.7 891.7 469.8C893 461 897 452 898 443.2C899 434.3 897 425.7 897 417C897 408.3 899 399.7 899.3 391C899.7 382.3 898.3 373.7 897.7 365C897 356.3 897 347.7 896.8 339C896.7 330.3 896.3 321.7 895.5 313C894.7 304.3 893.3 295.7 893.2 287C893 278.3 894 269.7 895.5 261C897 252.3 899 243.7 899.7 235C900.3 226.3 899.7 217.7 899.3 209C899 200.3 899 191.7 897 183C895 174.3 891 165.7 890.5 156.8C890 148 893 139 895.3 130.2C897.7 121.3 899.3 112.7 898.2 104C897 95.3 893 86.7 892.3 78C891.7 69.3 894.3 60.7 894.2 52C894 43.3 891 34.7 889.3 26C887.7 17.3 887.3 8.7 887.2 4.3L887 0L900 0L900 4.3C900 8.7 900 17.3 900 26C900 34.7 900 43.3 900 52C900 60.7 900 69.3 900 78C900 86.7 900 95.3 900 104C900 112.7 900 121.3 900 130.2C900 139 900 148 900 156.8C900 165.7 900 174.3 900 183C900 191.7 900 200.3 900 209C900 217.7 900 226.3 900 235C900 243.7 900 252.3 900 261C900 269.7 900 278.3 900 287C900 295.7 900 304.3 900 313C900 321.7 900 330.3 900 339C900 347.7 900 356.3 900 365C900 373.7 900 382.3 900 391C900 399.7 900 408.3 900 417C900 425.7 900 434.3 900 443.2C900 452 900 461 900 469.8C900 478.7 900 487.3 900 496C900 504.7 900 513.3 900 522C900 530.7 900 539.3 900 548C900 556.7 900 565.3 900 574C900 582.7 900 591.3 900 595.7L900 600Z" fill="#fa70af"></path></svg>